<?xml version="1.0" encoding="iso-8859-1"?>
<!DOCTYPE svg PUBLIC "-//W3C//DTD SVG 1.1//EN" "http://www.w3.org/Graphics/SVG/1.1/DTD/svg11.dtd" [
    <!ENTITY ns_flows "http://ns.adobe.com/Flows/1.0/">
    <!ENTITY ns_extend "http://ns.adobe.com/Extensibility/1.0/">
    <!ENTITY ns_ai "http://ns.adobe.com/AdobeIllustrator/10.0/">
    <!ENTITY ns_graphs "http://ns.adobe.com/Graphs/1.0/">
]>
<!-- Generator: Adobe Illustrator 19.0.0, SVG Export Plug-In . SVG Version: 6.00 Build 0)  -->
<svg version="1.1" id="Layer_1" xmlns:x="&ns_extend;" xmlns:i="&ns_ai;" xmlns:graph="&ns_graphs;"
	 xmlns="http://www.w3.org/2000/svg" xmlns:xlink="http://www.w3.org/1999/xlink" xmlns:a="http://ns.adobe.com/AdobeSVGViewerExtensions/3.0/"
	 x="0px" y="0px" viewBox="0 0 1500 1500" style="enable-background:new 0 0 1500 1500;" xml:space="preserve">
<g>
	<path id="XMLID_22_" style="fill:#27262E;" d="M806.257,214.906c1.912,0.564,2.818-0.678,3.63-1.934
		c0.643-0.994,1.131-2.125,1.497-3.256c7.216-22.296,14.028-44.73,22.953-66.438c2.068-5.029,3.138-10.351,3.882-15.713
		c0.275-1.983-0.1-4.132-2.595-4.583c-2.342-0.425-3.941,0.492-4.757,3.002c-7.894,24.276-15.875,48.523-23.814,72.784
		c-1.351,4.13-2.62,8.288-3.68,11.651C803.546,213.146,804.399,214.358,806.257,214.906z"/>
	<path id="XMLID_21_" style="fill:#27262E;" d="M683.814,170.822c16.02,14.553,33.276,27.622,49.904,41.446
		c4.967,4.13,10.038,8.136,15.099,12.151c1.705,1.352,3.746,1.737,5.302,0.048c1.734-1.883,0.029-3.32-1.306-4.52
		c-3.908-3.512-7.775-7.082-11.842-10.403c-10.698-8.737-21.423-17.444-32.274-25.991c-8.615-6.786-16.86-13.975-24.805-21.524
		c-1.425-1.354-3.018-2.514-5.268-2.463c-1.74,0.59-2.734,1.481-1.687,3.625C678.511,166.417,681.277,168.517,683.814,170.822z"/>
	<path id="XMLID_20_" style="fill:#27262E;" d="M782.557,190.55c0.699,3.536,1.368,7.078,2.113,10.604
		c0.292,1.384,0.907,2.698,2.622,2.539c1.591-0.148,2.34-1.406,2.412-2.826c0.083-1.63-0.08-3.29-0.303-4.915
		c-0.489-3.566-1.475-7.109-1.559-10.678c-0.245-10.387-2.286-20.524-3.811-30.735c-0.31-2.075-1.302-3.935-3.751-3.657
		c-2.645,0.299-2.537,2.447-2.442,4.497C778.393,167.24,781.27,178.79,782.557,190.55z"/>
	<path id="XMLID_19_" style="fill:#27262E;" d="M744.745,175.352c4.985,10.42,9.923,20.864,15.029,31.225
		c0.852,1.73,2.419,3.368,4.762,2.168c2.188-1.12,2.227-3.199,1.398-5.104c-1.855-4.261-3.902-8.44-5.925-12.627
		c-3.001-6.209-5.989-12.427-9.118-18.572c-0.893-1.754-2.374-3.543-4.617-2.625c-1.845,0.755-2.211,2.704-1.75,4.661
		C744.593,174.771,744.617,175.086,744.745,175.352z"/>
	<path style="fill:#27262E;" d="M1270.337,1083.561c4.886-6.234,8.139-13.565,10.41-21.113c1.141-3.793,2.044-7.655,2.81-11.54
		c0.63-3.189,2.558-8.045,1.239-11.154c-0.89-2.097-3.001-3.39-5.036-4.182c-4.244-1.652-8.899-1.645-13.369-2.068
		c-13.192-1.247-26.447-1.786-39.695-1.824c-6.026-0.017-12.052,0.07-18.076,0.244c-4.983,0.144-11.894-0.742-16.494,1.659
		c-7.922,4.134-6.257,14.201-3.818,21.091c6.104,17.244,18.274,33.116,33.641,43.135c1.885,1.229,3.874,2.322,6.004,3.065
		c7.791,2.718,16.265,0.063,23.394-3.332C1258.5,1094.136,1265.391,1089.871,1270.337,1083.561z M1194.637,1035.949
		c0.339-0.42,0.752-0.781,1.229-1.058c1.163-0.675,2.535-0.893,3.877-0.958c12.973-0.621,26.027,0.032,38.999,0.388
		c8.56,0.235,17.34,0.547,25.944,1.427c4.875,0.499,19.337,0.247,17.172,8.636c-1.025,3.971-5.59,5.632-9.189,6.27
		c-5.343,0.947-10.732,1.636-16.142,2.059c-10.82,0.846-21.723,0.638-32.502-0.628c-5.828-0.684-11.723-1.363-17.327-3.187
		c-4.342-1.412-12.814-3.996-13.14-9.572C1193.487,1038.109,1193.881,1036.885,1194.637,1035.949z M1231.252,1098.617
		c-4.296-0.7-8.436-2.422-12.154-5.408c-4.057-3.257-7.483-7.203-10.999-11.016c-5.732-6.216-10.741-13.125-14.367-20.784
		c-2.282-4.822-4.987-10.72-5.119-16.129c-0.071-2.907,0.667-5.653,2.495-7.65c-2.894,14.081,34.335,17.274,42.282,17.732
		c11.698,0.675,23.668,0.078,35.252-1.701c3.384-0.519,8.616-1.595,12.326-3.995c-1.839,12.126-5.551,24.076-13.543,33.605
		C1258.98,1093.342,1244.388,1100.757,1231.252,1098.617z"/>
	<path id="XMLID_15_" style="fill:#27262E;" d="M1225.494,1082.279c-9.16-2.58-16.201-9.664-18.732-18.836
		c-0.421-1.525-2.797-0.878-2.374,0.655c2.759,9.997,10.469,17.744,20.452,20.556
		C1226.367,1085.083,1227.019,1082.708,1225.494,1082.279z"/>
	<path id="XMLID_14_" style="fill:#27262E;" d="M1210.95,1042.262c7.958-2.361,16.208-1.579,24.388-2.057
		c1.575-0.092,1.586-2.555,0-2.462c-8.414,0.492-16.86-0.282-25.043,2.146C1208.781,1040.338,1209.426,1042.715,1210.95,1042.262z"
		/>
	<path style="fill:#27262E;" d="M1291.222,1225.195c-1.068-4.313-3.747-9.043-7.813-11.102c-2.468-1.25-5.398-1.699-8.216-2.124
		c0.285-0.411,0.487-0.869,0.491-1.426c0.037-4.781-5.572-6.476-9.349-7.32c-5.993-1.34-12.019-2.272-17.844-4.329
		c-5.35-1.889-8.36-6.264-8.323-12.187c0.182-23.083,0.317-46.165,0.731-69.235c0.098-5.314,2.718-9.457,7.873-11.858
		c8.214-3.839,15.331-9.239,21.462-15.941c13.186-14.418,17.891-31.955,18.683-50.894c0.78-18.682-1.048-37.158-4.948-55.402
		c-2.097-9.799-4.704-19.487-7.069-29.176h-84.31c-0.317,0.804-0.646,1.499-0.865,2.23c-8.775,29.444-13.991,59.387-11.078,90.233
		c2.51,26.69,15.258,46.774,39.571,58.912c5.167,2.571,7.495,6.727,7.861,12.235c0.171,2.73,0.244,5.46,0.268,8.19
		c0.146,19.256,0.073,38.511,0.488,57.755c0.073,3.205-0.341,5.801-1.219,7.922c-1.779,4.351-5.423,6.776-10.627,8.629
		c-1.743,0.621-3.559,1.084-5.375,1.45c-4.607,0.914-9.238,1.682-13.844,2.62c-1.359,0.277-2.686,0.88-3.391,2.135
		c-0.938,1.671-0.691,3.574,0.406,5.014c-43.203-0.96-86.404-2.048-129.603-3.473c-17.227-0.576-33.492-4.263-46.607-17.313
		c-11.16-11.079-22.862-21.789-35.381-31.281c-15.286-11.603-32.24-21.181-51.591-23.797c-18.605-2.512-37.485-4.212-56.272-4.319
		c-162.329-0.952-324.628-1.533-486.959-1.942c-10.494-0.009-23.287-0.059-34.404,3.245c-15.417,4.578-24.239,18.218-29.306,32.649
		c-6.266,17.779-9.658,36.516-12.809,55.02c-3.293,19.145-3.947,38.671-2.602,58.037c1.345,19.502,3.669,39.279,10.363,57.72
		c4.052,11.151,10.197,23.531,20.665,29.867c11.92,7.258,28.506,6.884,42.008,7.616c15.939,0.807,31.915,0.802,47.857,0.901
		c23.456,0.159,46.878,0.254,70.335,0.346c44.035,0.21,88.104,0.318,132.173,0.495c81.165,0.324,162.33,1.018,243.463,0.766
		c24.201-0.106,48.842,0.195,71.996-8.547c25.694-9.714,48.027-25.126,66.319-45.43c12.171-13.49,26.785-19.795,44.049-20.37
		c38.22-1.303,76.506-2.537,114.755-2.419c22.103,0.055,44.149-3.174,66.535,2.296c10.267,2.509,20.834-0.335,30.973-2.111
		c8.024-1.406,16.015-1.24,19.036-10.28c3.655-10.937,5.487-22.448,5.411-33.979c-0.044-6.506-0.9-12.969-2.108-19.354
		C1292.409,1232.322,1292.093,1228.705,1291.222,1225.195z M826.818,1182.904c-16.01-0.053-32.021-0.027-48.03-0.063v121.492
		c0,11.755-9.529,21.284-21.284,21.284H522.82c-11.755,0-21.284-9.529-21.284-21.284V1182.64
		c-43.065,0.023-86.13,0.045-129.194,0.049c-12.104,0.002-18.854-11.752-12.312-22.269c1.404-2.255,5.543-3.828,8.485-3.932
		c12.457-0.434,24.94-0.202,37.412-0.203c72.758-0.001,145.517,0,218.276,0.009c73.792,0.01,147.586-0.377,221.373,0.273
		c19.358,0.171,38.745,3.132,57.994,5.739c5.591,0.757,11.328,3.952,15.966,7.412c6.815,5.084,5.575,13.4-2.341,16.619
		c-4.126,1.678-9.107,2.13-13.619,1.842C877.977,1186.553,852.407,1182.989,826.818,1182.904z M980.626,1312.242
		c-16.299,25.155-46.264,39.188-76.047,36.997c-13.767-1.012-13.832-22.563,0-21.545c22.072,1.624,45.12-7.304,57.445-26.326
		C969.545,1289.761,988.188,1300.572,980.626,1312.242z M1112.598,1294.182l0.029-7.073l0.271-68.033l0.015-3.689
		c8.934,0.239,17.868,0.546,26.836,0.785c-0.034,0.1-0.032,0.202-0.032,0.302l-0.302,75.041c-0.002,0.811,0.13,1.555,0.433,2.167
		C1130.778,1293.85,1121.669,1294.016,1112.598,1294.182z M1224.824,1104.237c-5.287-1.873-10.124-5.02-14.648-8.425
		c-1.622-1.222-3.197-2.508-4.716-3.856c-5.804-5.152-10.124-11.106-13.805-17.923c-4.167-7.717-7.356-16.36-8.475-25.09
		c-1.292-10.083-1.544-20.286-0.873-30.426c0.383-5.782,1.064-11.543,2.007-17.259c2.328-14.198,5.972-28.189,9.03-42.265
		c0.402-1.901,1.158-2.901,3.474-2.901c24.947,0.11,49.894,0.11,74.841,0c2.486-0.012,3.376,0.878,4.01,3.096
		c5.391,18.869,9.399,38.182,10.662,57.796c0.453,7.027,0.63,14.074,0.434,21.114c-0.184,6.638-0.414,13.419-2.156,19.861
		c-2.263,8.367-6.451,16.111-11.429,23.161c-2.279,3.227-4.739,6.326-7.321,9.315c-4.237,4.904-9.165,9.371-15.123,12.066
		C1242.628,1106.167,1233.33,1107.25,1224.824,1104.237z"/>
	<path style="fill:#27262E;" d="M304.319,537.559c-119.469,2.373-103.646-183.556,12.659-246.063
		c115.517-60.918,90.992,404.304,56.968,458.895c-3.958,11.871,71.208,40.351,71.996,33.231c1.585-5.539,3.166-12.659,4.751-21.36
		c20.567-73.582,43.512-141.628,99.688-248.436c3.166,112.347-5.539,181.182-18.987,231.819
		c-3.958,11.867,71.208,44.309,71.996,36.397c14.265-65.084,43.602-162.206,84.527-258.24
		c-12.859,76.065-12.219,152.279,46.726,155.105c35.558,1.72,62.811-27.958,88.813-82.308l-13.249,65.91
		c-2.139,9.268,69.866,30.658,74.858,3.567c0.714-1.428,4.991-24.956,11.407-60.602c28.516-62.737,106.94-224.573,91.97-119.771
		c-18.537,86.265-29.944,189.642,39.208,193.205c31.722,1.535,57.201-21.902,80.654-65.559
		c12.637,20.053,31.321,28.466,50.413,29.333c76.92,3.23,118.932-56.88,136.386-122.814c1.291-3.878-12.281-10.986-15.515-2.583
		c-27.145,74.978-89.845,119.58-104.712,47.185c29.087-16.159,76.272-58.175,84.676-135.095c3.23-32.318-8.403-63.991-49.124-67.222
		c-60.114-3.878-97.604,52.354-110.533,115.702c-10.098,50.755-9.147,87.284-1.578,112.869
		c-11.483,19.319-24.237,32.9-34.303,31.148c-20.676-3.567-14.974-59.174-1.428-112.646c11.407-42.775,27.091-84.126,37.788-96.957
		c16.395-21.39-61.316-37.074-78.424-33.507c-41.351,7.126-79.135,71.291-104.802,124.049
		c11.407-57.035,23.528-76.996,34.935-89.118c17.109-22.1-83.416-43.489-85.554-31.368l-32.898,163.659
		c-3.764-0.249-7.634,0.832-9.159,3.879c-14.26,37.074-37.784,74.862-53.468,72.009c-20.675-3.567-14.974-59.174-1.428-112.646
		c10.697-42.775,26.381-84.126,37.788-96.957c10.032-12.961-20.62-24.929-48.13-30.322c4.844-8.06,9.775-15.957,14.787-23.676
		c0.37,0.467,0.89,0.809,1.673,0.959c15.464,2.967,31.245-0.76,45.847-5.837c6.222-2.163,13.88-4.068,19.398-7.757
		c4.537-3.033,3.407-6.997,1.594-11.536c-4.791-11.99-7.568-24.675-12.728-36.53c-1.344-3.088-1.952-6.401-2.774-9.636
		c44.168-49.344,93-81.221,145.06-81.886c73.582-0.788,92.568,64.088,94.153,132.131c0,7.12,20.567,2.373,19.779-4.747
		c-1.585-72.789-33.231-150.329-110.771-150.329c-50.676-0.25-98.881,26.013-143.011,67.695c-1.289-6.664-3.122-13.194-5.532-19.581
		c-1.428-3.783-3.894-6.85-7.667-8.019c-4.397-1.363-8.762-3.431-13.45-3.315c-11.306,0.279-23.177,1.587-34.144,5.22
		c-7.971,2.64-16.965,5.766-23.05,11.806c-4.592,4.559-5.122,11.424-4.571,17.525c1.063,11.773,5.026,28.754,17.956,32.594
		c3.015,0.895,4.409,3.585,4.672,6.732c0.841,10.073,1.729,20.144,2.514,30.221c-12.694,17.436-24.896,35.869-36.532,54.972
		c-6.542,0.064-10.915,1.104-11.34,3.37c-1.572,7.075-4.122,16.805-7.188,28.421c-39.729,71.073-71.867,148.034-93.901,213.848
		c5.539-64.088,4.747-123.426-7.12-214.413c87.029-157.449-106.024-168.527-65.674,66.457
		c-24.526,41.936-44.305,79.913-68.042,143.209c10.286-85.448,30.858-481.84-175.643-356.041
		c-128.174,77.54-147.956,293.534-2.373,292.746C308.277,556.55,310.651,537.559,304.319,537.559z M1174.229,501.769
		c19.393-129.922,63.348-103.421,61.409-73.039c-3.878,54.941-34.908,97.601-63.991,115.702
		C1170.999,531.504,1171.647,516.637,1174.229,501.769z"/>
	<path style="fill:#27262E;" d="M921.299,1112.478c42.827,2.072,73.91-42.827,104.302-122.261c2.76-6.216-13.816-9.672-17.268-2.76
		c-13.124,35.915-35.919,72.523-51.807,69.762c-20.031-3.452-14.504-57.331-0.692-109.133c4.144-17.271,11.744-49.735,20.723-82.89
		c7.596,0,15.196,0,26.247,0c13.815,0,21.412-22.103,15.887-21.415c-13.124,0.692-22.795,0.692-35.919,0
		c11.052-37.295,22.795-71.835,31.775-80.814c16.576-21.412-81.506-40.063-83.578-29.011
		c-4.148,18.651-14.507,59.406-24.175,100.157c-4.836-1.38-8.98-2.764-13.128-4.144c-25.555-10.36-42.823,35.915-28.319,35.915
		c16.579,0,24.867-0.688,33.847-0.688c-7.6,29.703-13.816,55.951-17.268,69.763c-0.478,3.827-1.288,8.622-2.267,14.108
		c-13.621,15.952-30.096,26.549-55.744,31.479c97.394-293.557-62.167-338.456-123.641-158.176
		c-71.932,21.205-104.052,109.232-101.212,182.884c-13.24,29.207-31.278,54.267-44.525,51.966
		c-20.028-3.452-14.504-57.331-1.38-109.133c11.052-41.447,26.247-81.51,36.607-93.942c15.891-20.723-59.399-35.919-75.978-32.467
		c-40.063,6.912-76.67,69.074-101.538,120.189c11.052-55.259,22.791-74.598,33.847-86.342c16.576-21.412-80.818-42.135-82.89-30.391
		L308.64,1096.59c-2.076,8.98,67.69,29.699,72.526,3.452c0.688-1.38,4.836-24.171,11.052-58.71
		c27.631-60.786,103.61-217.579,89.106-116.041c-17.96,83.578-29.011,183.732,37.987,187.188
		c33.216,1.607,59.366-25.056,83.609-74.155c6.885,33.963,22.496,61.034,46.244,70.7c48.347,19.343,126.401-4.836,167.156-106.374
		c22.819-2.139,42.478-12.585,58.469-26.063C865.756,1031.079,858.94,1109.334,921.299,1112.478z M685.08,1078.63
		c-17.959-18.651-8.288-86.338,15.888-137.456c7.596,20.723,20.72,39.371,40.063,53.187
		C721.687,1042.712,696.824,1091.754,685.08,1078.63z M748.627,976.401c-22.792-11.74-33.155-33.152-36.607-55.947
		c17.268-28.323,37.991-71.146,65.618-60.783C770.73,894.899,758.99,945.318,748.627,976.401z M779.022,836.184
		c-1.384-4.144-22.103-18.651-55.259-18.651C752.082,743.626,789.381,755.366,779.022,836.184z"/>
	<path id="XMLID_2_" style="fill:#27262E;" d="M1049.761,1021.3c-20.032,73.218-15.884,98.778-0.688,98.778
		c35.227,0,70.454-66.31,87.722-76.674C1153.374,1021.992,1053.216,1009.56,1049.761,1021.3z"/>
	<path id="XMLID_1_" style="fill:#27262E;" d="M1221.065,883.843c145.053-125.021,54.567-231.395-68.382-220.343
		c-64.239,5.528-103.61,66.31-57.331,136.073c3.452,4.836,29.011-13.812,24.867-19.34c-29.703-47.659-24.179-91.178,26.936-101.538
		c64.93-12.432,78.746,65.622,4.148,149.201c-91.87,102.918-91.87,132.621-80.126,147.817c22.792,29.703,66.999,31.771,53.187,2.072
		C1128.507,948.086,1181.001,918.382,1221.065,883.843z"/>
</g>
<g id="XMLID_23_">
</g>
<g id="XMLID_24_">
</g>
<g id="XMLID_25_">
</g>
<g id="XMLID_26_">
</g>
<g id="XMLID_27_">
</g>
<g id="XMLID_28_">
</g>
</svg>
