<svg class="started" xmlns="http://www.w3.org/2000/svg" x="0px" y="0px" height="500" viewBox="3000 0 150 750" enable-background="new 0 0 100 900">
  <g id="Page-1"  stroke="none" fill="none" stroke-width="1" fill-rule="evenodd">
    <g id="Group" transform="translate(0, 700) scale(1,-0.9)" stroke="#89cff0" stroke-width="30">
				<!-- HI -->
				<!-- <path data-duration="10" d="M324.6,61.2c16.6,0,29.5-12.9,29.5-29.5c0-16.6-12.9-29.5-29.5-29.5c-16.6,0-29.5,12.9-29.5,29.5C295.1,48.4,308,61.2,324.6,61.2z" style="stroke-dasharray: 186, 226; stroke-dashoffset: 0;"></path>
        <path data-duration="130" d="M366.2,204.2c-9.8,0-15-5.6-15-15.1V77.2h-85v28h19.5c9.8,0,8.5,2.1,8.5,11.6v72.4c0,9.5,0.5,15.1-9.3,15.1H277h-20.7c-8.5,0-14.2-4.1-14.2-12.9V52.4c0-8.5,5.7-12.3,14.2-12.3h18.8v-28h-127v28h18.1c8.5,0,9.9,2.1,9.9,8.9v56.1h-75V53.4c0-11.5,8.6-13.3,17-13.3h11v-28H2.2v28h26c8.5,0,12,2.1,12,7.9v142.2c0,8.5-3.6,13.9-12,13.9h-21v33h122v-33h-11c-8.5,0-17-4.1-17-12.2v-57.8h75v58.4c0,9.1-1.4,11.6-9.9,11.6h-18.1v33h122.9h5.9h102.2v-33H366.2z" style="stroke-dasharray: 2216, 2256; stroke-dashoffset: 0;"></path>

        <path data-async="" data-delay="20" d="M358.8,82.8c11.1-4.2,18.8-14.7,18.8-27.5c0-8.5-3.4-16-8.9-21.3" style="stroke-dasharray: 60, 100; stroke-dashoffset: 0;"></path>
				<path data-async="" d="M124.2,105.7V77c0-11.5,9.1-13.8,17.5-13.8h10.5V44.7" style="stroke-dasharray: 84, 124; stroke-dashoffset: 0;"></path>
				<path data-async="" d="M147.9,40.2L171.2,63.2L175.7,63.2" style="stroke-dasharray: 38, 78; stroke-dashoffset: 0;"></path>
				<path data-async="" d="M295.1,32.1L275.2,12.2" style="stroke-dasharray: 29, 69; stroke-dashoffset: 0;"></path>
				<path data-async="" d="M266.2,204.7V75.9c0-8.5,5.2-12.8,13.7-12.8h18.3V44.7" style="stroke-dasharray: 187, 227; stroke-dashoffset: 0;"></path>
				<path data-async="" d="M265.9,105.2L289.2,129.2L293.7,129.2" style="stroke-dasharray: 38, 78; stroke-dashoffset: 0;"></path>
				<path data-async="" d="M374.2,204.7L374.2,94.2L358.8,82.8L351.2,77.2" style="stroke-dasharray: 140, 180; stroke-dashoffset: 0;"></path>
				<path data-async="" d="M148.2,237.2L171.2,261.2L294.6,261.2L300.5,261.2L402.2,261.2L402.2,228.2L379.2,204.2" style="stroke-dasharray: 331, 371; stroke-dashoffset: 0;"></path>
				<path data-async="" d="M124.2,204.7L124.2,157.2L175.7,157.2" style="stroke-dasharray: 99, 139; stroke-dashoffset: 0;"></path>
				<path data-async="" d="M147.7,228.2L129.2,204.2" style="stroke-dasharray: 31, 71; stroke-dashoffset: 0;"></path>
				<path data-async="" d="M7.2,237.3L30.2,261.2L152.2,261.2L152.2,241.7" style="stroke-dasharray: 175, 215; stroke-dashoffset: 0;"></path>
				<path data-async="" d="M1.9,40.2L26,63.2L39.7,63.2" style="stroke-dasharray: 48, 88; stroke-dashoffset: 0;"></path>
				<path data-async="" d="M129.2,12.2L148.2,33.2" style="stroke-dasharray: 29, 69; stroke-dashoffset: 0;"></path>
				<path data-async="" d="M303.9,53L328.1,77.2" style="stroke-dasharray: 35, 75; stroke-dashoffset: 0;"></path>

				<path d="M345.1,10.5L368.7,34" style="stroke-dasharray: 34, 74; stroke-dashoffset: 0;"></path>

				<!-- there -->
				<!-- <path data-delay="30" data-duration="60" stroke-linecap="round" stroke-linejoin="round" d="M76.8,337.3c0,0,1.9,12.2,13.1,12.2c22.1,0,23.8-1.8,59-66.4c-19.7,35.7-36.4,66.2-19.3,66.2c15.2,0,22.9-14.2,28.3-23.7c3.3-0.5,24-3.2,35-25.5c4-8.1,4.1-17.8-8.1-15.2c-5.6,1.2-13.1,14.8-15.7,19.2c-7.6,12.7-22.4,45.2-22.4,45.2s10.3-22.4,21.5-22.4c15.5,0-9.4,22.4,4.7,22.4c4.9,0,11.7-11.4,16.6-20.9c7.5,4.7,19.7,1.7,24.5-8.1c10.1-20.4-14.4-12.8-24.5,8.1c-5.5,11.3-2.2,21.1,11.2,21.1c16.4,0,26.1-28.3,30.5-37.5c9.9,2.5,14,2.5,22.7-1.1c-3.5,5.1-24,38.1-8.3,38.1c6.7,0,11.7-11.4,16.6-20.9c7.5,4.7,19.7,1.7,24.5-8.1c10.1-20.4-14.4-12.8-24.5,8.1c-5.5,11.3-2.2,21.1,11.2,21.1c16.4,0,20.6-4,24.7-10.5" style="stroke-dasharray: 851, 891; stroke-dashoffset: 0;"></path> --> -->

        <!-- Spencer's -->
        <path unicode='S' data-delay="30" data-duration="60" stroke-linecap="round" stroke-linejoin="round" d="M27 155q2 20 22 20h50q20 0 18 -20l-7 -46v-2q0 -8 5 -13t12 -5h40q8 0 15 6t8 14l25 176v5q0 15 -17 15h-50q-43 0 -65.5 20t-22.5 59q0 5 2 21l27 194q6 44 39 73t77 29h56q40 0 64.5 -24t24.5 -62q0 -11 -1 -16l-8 -54q-2 -20 -22 -20h-50q-20 0 -18 20l7 46v2 q0 8 -5 13t-12 5h-40q-8 0 -15 -6t-8 -14l-25 -176v-5q0 -15 17 -15h50q43 0 65.5 -20t22.5 -59q0 -5 -2 -21l-27 -194q-6 -44 -39 -73t-77 -29h-56q-40 0 -64.5 24t-24.5 62q0 11 1 16z" style="stroke-dasharray: 851, 891; stroke-dashoffset: 0;"></path>

        <path transform="translate(350, 0)" unicode="p" data-delay="30" data-duration="60" stroke-linecap="round" stroke-linejoin="round" d="M-24.1885 20l184.772 660q3.12402 8 10.4678 14q7.34277 6 15.3428 6h138q40 0 61.127 -24q21.126 -24 15.7852 -62q-1.54688 -11 -3.24902 -16l-42.085 -150q-17.7148 -62 -69.9082 -102.5q-52.1924 -40.5 -113.192 -40.5h-17q-5 0 -8.42188 -3t-4.9834 -7
        l-76.6553 -275q-5.81152 -20 -25.8115 -20h-50q-20 0 -14.1885 20zM176.053 413q-1.12402 -8 3.17285 -13t11.2969 -5h40q8 0 15.8438 6t9.96777 14l49.5986 175l0.28125 2q1.12402 8 -3.17285 13t-11.2969 5h-40q-8 0 -15.8438 -6q-7.84277 -6 -9.96777 -14l-49.5986 -175z" style="stroke-dasharray: 851, 891; stroke-dashoffset: 0;"></path>

        <path transform="translate(700, 0)" unicode="e" data-delay="30" data-duration="60" stroke-linecap="round" stroke-linejoin="round" d="M37 89h210q20 0 18 -20l-7 -50q-3 -20 -23 -20h-210q-20 0 -17 20l7 50q2 20 22 20zM37 185q-5 6 -4 14l67 481q2 8 8.5 14t14.5 6h210q8 0 13 -6t4 -14l-7 -50q-1 -8 -7.5 -14t-14.5 -6h-125q-8 0 -15 -6t-8 -14l-12 -85v-3q0 -7 5 -12t12 -5h95q8 0 13 -6t4 -14l-7 -50
        q-1 -8 -8 -14t-15 -6h-95q-8 0 -14.5 -6t-7.5 -14l-13 -86v-2q0 -7 5.5 -12.5t12.5 -5.5h125q8 0 13 -6t4 -14l-7 -50q-2 -8 -8.5 -14t-14.5 -6h-210q-8 0 -13 6z" style="stroke-dasharray: 851, 891; stroke-dashoffset: 0;"></path>

        <path transform="translate(1050, 0)" unicode="n" data-delay="30" data-duration="60" stroke-linecap="round" d="M160.584 680q5.81055 20 25.8105 20h53q8 0 13.3682 -4.5q5.36719 -4.5 5.38281 -11.5l-16.6387 -282q-0.84375 -6 4.15625 -6t8.125 8l76.7959 276q5.81055 20 25.8105 20h50q20 0 14.1895 -20l-184.772 -660q-5.81152 -20 -25.8115 -20h-53q-8 0 -13.3672 4.5
        q-5.36816 4.5 -5.38379 11.5l10.8281 262q0.842773 6 -4.15723 6q-4 0 -7.12402 -8l-71.9844 -256q-5.81152 -20 -25.8115 -20h-50q-20 0 -14.1885 20z" style="stroke-dasharray: 851, 891; stroke-dashoffset: 0;"></path>

        <path transform="translate(1400, 0)" unicode="c" data-delay="30" data-duration="60" stroke-linecap="round" d="M138.198 599q12.1846 44 49.2607 73t81.0762 29h56q40 0 61.127 -24q21.126 -24 15.7852 -62q-1.54688 -11 -3.24902 -16l-15.5908 -54q-4.81152 -20 -24.8115 -20h-50q-20 0 -15.1885 20l13.4658 46l0.28125 2q1.12402 8 -3.17285 13t-11.2969 5h-40q-8 0 -15.8438 -6
        q-7.84277 -6 -9.96777 -14l-135.471 -480l-0.28125 -2q-0.983398 -7 3.74316 -12.5t11.7266 -5.5h40q8 0 15.3438 6t9.46777 14l13.1846 44q4.81152 20 24.8115 20h50q20 0 15.1885 -20l-15.3086 -52q-12.1855 -44 -49.2617 -73t-81.0762 -29h-56q-40 0 -61.127 24 q-21.126 24 -15.7842 62q1.5459 11 3.24902 16z" style="stroke-dasharray: 851, 891; stroke-dashoffset: 0;"></path>

        <path transform="translate(1750, 0)" unicode="e" data-delay="30" data-duration="60" stroke-linecap="round" stroke-linejoin="round" d="M37 89h210q20 0 18 -20l-7 -50q-3 -20 -23 -20h-210q-20 0 -17 20l7 50q2 20 22 20zM37 185q-5 6 -4 14l67 481q2 8 8.5 14t14.5 6h210q8 0 13 -6t4 -14l-7 -50q-1 -8 -7.5 -14t-14.5 -6h-125q-8 0 -15 -6t-8 -14l-12 -85v-3q0 -7 5 -12t12 -5h95q8 0 13 -6t4 -14l-7 -50
        q-1 -8 -8 -14t-15 -6h-95q-8 0 -14.5 -6t-7.5 -14l-13 -86v-2q0 -7 5.5 -12.5t12.5 -5.5h125q8 0 13 -6t4 -14l-7 -50q-2 -8 -8.5 -14t-14.5 -6h-210q-8 0 -13 6z" style="stroke-dasharray: 851, 891; stroke-dashoffset: 0;"></path>

        <path transform="translate(2100, 0)" unicode="r" data-delay="30" data-duration="60" stroke-linecap="round" stroke-linejoin="round" d="M160.584 680q3.12402 8 10.4678 14q7.34277 6 15.3428 6h138q40 0 61.127 -24q21.126 -24 15.7852 -62q-1.54688 -11 -3.24902 -16l-42.085 -150q-17.293 -59 -64.7754 -98q20.6426 -31 14.458 -75q-0.984375 -7 -5.2334 -23l-64.4697 -231q-3.26562 -9 -10.6084 -15
        q-7.34375 -6 -16.3438 -6h-49q-8 0 -12.5859 6.5q-4.58691 6.5 -1.46191 14.5l73.9678 263l0.28125 2q1.125 8 -3.17285 13q-4.29688 5 -11.2969 5h-40q-8 0 -15.8438 -6q-7.84277 -6 -9.96777 -14l-74.1084 -264q-3.125 -8 -10.4678 -14q-7.34375 -6 -15.3438 -6h-50 q-8 0 -12.1562 6q-4.15723 6 -2.03223 14zM176.053 413q-1.12402 -8 3.17285 -13t11.2969 -5h40q8 0 15.8438 6t9.96777 14l49.5986 175l0.28125 2q1.12402 8 -3.17285 13t-11.2969 5h-40q-8 0 -15.8438 -6q-7.84277 -6 -9.96777 -14l-49.5986 -175z" style="stroke-dasharray: 851, 891; stroke-dashoffset: 0;"></path>

        <path transform="translate(2450, 0)" unicode="'" data-delay="30" data-duration="60" stroke-linecap="round" stroke-linejoin="round" horiz-adv-x="210" d="M106 580l14 100q3 20 23 20h50q20 0 17 -20l-7 -56q-3 -13 -13 -25l-27 -28q-11 -11 -26 -11h-13q-20 0 -18 20z" style="stroke-dasharray: 851, 891; stroke-dashoffset: 0;"></path>

        <path transform="translate(2700, 0)" unicode="s" data-delay="30" data-duration="60" stroke-linecap="round" stroke-linejoin="round" d="M13.7871 155q4.81152 20 24.8115 20h50q20 0 15.1885 -20l-13.4658 -46l-0.28125 -2q-1.12402 -8 3.17285 -13t11.2969 -5h40q8 0 15.8438 6t9.96777 14l49.7393 176l0.703125 5q2.1084 15 -14.8916 15h-50q-43 0 -62.6885 20q-19.6895 20 -14.207 59
        q0.703125 5 4.95215 21l54.2695 194q12.1846 44 49.2607 73t81.0762 29h56q40 0 61.127 -24q21.126 -24 15.7852 -62q-1.54688 -11 -3.24902 -16l-15.5908 -54q-4.81152 -20 -24.8115 -20h-50q-20 0 -15.1885 20l13.4658 46l0.28125 2q1.12402 8 -3.17285 13t-11.2969 5h-40
        q-8 0 -15.8438 -6q-7.84277 -6 -9.96777 -14l-49.7393 -176l-0.703125 -5q-2.1084 -15 14.8916 -15h50q43 0 62.6895 -20q19.6885 -20 14.2061 -59q-0.702148 -5 -4.95117 -21l-54.2695 -194q-12.1855 -44 -49.2617 -73t-81.0762 -29h-56q-40 0 -61.126 24
        q-21.127 24 -15.7852 62q1.5459 11 3.24902 16z" style="stroke-dasharray: 851, 891; stroke-dashoffset: 0;"></path>

        <!-- Website -->
        <path transform="translate(3300, 0)" unicode="W" data-delay="30" data-duration="60" stroke-linecap="round" stroke-linejoin="round" d="M121 700h50q19 0 19 -18l-13 -315q0 -3 1.5 -5t3.5 -2q5 0 7 7l73 314q1 9 6 14t14 5h53q9 0 13 -5t3 -14l-13 -314q0 -3 1.5 -5t3.5 -2q5 0 7 7l73 315q3 18 23 18h50q10 0 13.5 -6t1.5 -16l-150 -660q-3 -18 -23 -18h-84q-19 0 -19 18l7 159q0 2 -2.5 2t-2.5 -2
        l-37 -159q-3 -18 -23 -18h-84q-19 0 -19 18l26 660q2 22 21 22z" style="stroke-dasharray: 851, 891; stroke-dashoffset: 0;"></path>

        <path transform="translate(3800, 0)" unicode="e" data-delay="30" data-duration="60" stroke-linecap="round" stroke-linejoin="round" d="M37 89h210q20 0 18 -20l-7 -50q-3 -20 -23 -20h-210q-20 0 -17 20l7 50q2 20 22 20zM37 185q-5 6 -4 14l67 481q2 8 8.5 14t14.5 6h210q8 0 13 -6t4 -14l-7 -50q-1 -8 -7.5 -14t-14.5 -6h-125q-8 0 -15 -6t-8 -14l-12 -85v-3q0 -7 5 -12t12 -5h95q8 0 13 -6t4 -14l-7 -50
        q-1 -8 -8 -14t-15 -6h-95q-8 0 -14.5 -6t-7.5 -14l-13 -86v-2q0 -7 5.5 -12.5t12.5 -5.5h125q8 0 13 -6t4 -14l-7 -50q-2 -8 -8.5 -14t-14.5 -6h-210q-8 0 -13 6z" style="stroke-dasharray: 851, 891; stroke-dashoffset: 0;"></path>

        <path transform="translate(4150, 0)" unicode="b" data-delay="30" data-duration="60" stroke-linecap="round" stroke-linejoin="round" d="M160.584 680q3.12402 8 10.4678 14q7.34277 6 15.3428 6h138q40 0 61.127 -24q21.126 -24 15.7852 -62q-1.54688 -11 -3.24902 -16l-42.085 -150q-17.293 -59 -64.7754 -98q20.6426 -31 14.458 -75q-0.984375 -7 -5.2334 -23l-42.084 -150q-12.1855 -44 -49.2617 -73
        t-81.0762 -29h-138q-8 0 -12.1562 6q-4.15723 6 -2.03223 14zM90.1807 108q-0.983398 -7 3.74316 -12.5t11.7266 -5.5h40q8 0 15.3438 6t9.46777 14l49.458 174l0.28125 2q1.125 8 -3.17285 13q-4.29688 5 -11.2969 5h-40q-8 0 -15.8438 -6q-7.84277 -6 -9.96777 -14
        l-49.458 -174zM176.053 413q-1.12402 -8 3.17285 -13t11.2969 -5h40q8 0 15.8438 6t9.96777 14l49.5986 175l0.28125 2q1.12402 8 -3.17285 13t-11.2969 5h-40q-8 0 -15.8438 -6q-7.84277 -6 -9.96777 -14l-49.5986 -175z" style="stroke-dasharray: 851, 891; stroke-dashoffset: 0;"></path>

        <path transform="translate(4500, 0)" unicode="s" data-delay="30" data-duration="60" stroke-linecap="round" stroke-linejoin="round" d="M13.7871 155q4.81152 20 24.8115 20h50q20 0 15.1885 -20l-13.4658 -46l-0.28125 -2q-1.12402 -8 3.17285 -13t11.2969 -5h40q8 0 15.8438 6t9.96777 14l49.7393 176l0.703125 5q2.1084 15 -14.8916 15h-50q-43 0 -62.6885 20q-19.6895 20 -14.207 59
        q0.703125 5 4.95215 21l54.2695 194q12.1846 44 49.2607 73t81.0762 29h56q40 0 61.127 -24q21.126 -24 15.7852 -62q-1.54688 -11 -3.24902 -16l-15.5908 -54q-4.81152 -20 -24.8115 -20h-50q-20 0 -15.1885 20l13.4658 46l0.28125 2q1.12402 8 -3.17285 13t-11.2969 5h-40
        q-8 0 -15.8438 -6q-7.84277 -6 -9.96777 -14l-49.7393 -176l-0.703125 -5q-2.1084 -15 14.8916 -15h50q43 0 62.6895 -20q19.6885 -20 14.2061 -59q-0.702148 -5 -4.95117 -21l-54.2695 -194q-12.1855 -44 -49.2617 -73t-81.0762 -29h-56q-40 0 -61.126 24
        q-21.127 24 -15.7852 62q1.5459 11 3.24902 16z" style="stroke-dasharray: 851, 891; stroke-dashoffset: 0;"></path>

        <path transform="translate(4850, 0)" unicode="i" data-delay="30" data-duration="60" stroke-linecap="round" stroke-linejoin="round" d="M191.052 694q7.34277 6 15.3428 6h50q8 0 12.1572 -6q4.15625 -6 2.03223 -14l-184.772 -660q-3.125 -8 -10.4678 -14q-7.34375 -6 -15.3438 -6h-50q-8 0 -12.1562 6q-4.15723 6 -2.03223 14l184.772 660q3.12402 8 10.4678 14z" style="stroke-dasharray: 851, 891; stroke-dashoffset: 0;"></path>

        <path transform="translate(5050, 0)" unicode="t" data-delay="30" data-duration="60" stroke-linecap="round" stroke-linejoin="round" d="M149.088 616q-4.65723 6 -2.53223 14l14.0283 50q3.12402 8 10.4678 14q7.34277 6 15.3428 6h220q8 0 12.1572 -6q4.15625 -6 2.03223 -14l-14.0283 -50q-2.125 -8 -9.46777 -14q-7.34375 -6 -15.3438 -6h-45q-8 0 -15.8438 -6q-7.84277 -6 -9.96777 -14l-160.121 -570
        q-3.125 -8 -10.4678 -14q-7.34375 -6 -15.3438 -6h-50q-8 0 -12.1562 6q-4.15723 6 -2.03223 14l160.121 570l0.28125 2q1.12402 8 -3.17285 13t-11.2969 5h-45q-8 0 -12.6562 6z" style="stroke-dasharray: 851, 891; stroke-dashoffset: 0;"></path>

        <path transform="translate(5450, 0)" unicode="e" data-delay="30" data-duration="60" stroke-linecap="round" stroke-linejoin="round" d="M37 89h210q20 0 18 -20l-7 -50q-3 -20 -23 -20h-210q-20 0 -17 20l7 50q2 20 22 20zM37 185q-5 6 -4 14l67 481q2 8 8.5 14t14.5 6h210q8 0 13 -6t4 -14l-7 -50q-1 -8 -7.5 -14t-14.5 -6h-125q-8 0 -15 -6t-8 -14l-12 -85v-3q0 -7 5 -12t12 -5h95q8 0 13 -6t4 -14l-7 -50
        q-1 -8 -8 -14t-15 -6h-95q-8 0 -14.5 -6t-7.5 -14l-13 -86v-2q0 -7 5.5 -12.5t12.5 -5.5h125q8 0 13 -6t4 -14l-7 -50q-2 -8 -8.5 -14t-14.5 -6h-210q-8 0 -13 6z" style="stroke-dasharray: 851, 891; stroke-dashoffset: 0;"></path>

      </g>
    </g>
			</svg>
