<svg class="started" xmlns="http://www.w3.org/2000/svg" viewBox="1000 -1400 4000 5000" >
  <g id="Page-1"  stroke="none" fill="none" stroke-width="1" fill-rule="evenodd">
    <g id="Group" transform="translate(0, 1200) scale(1,-0.9)" stroke="#89cff0" stroke-width="30">
        <!-- Spencer's -->
        <path style={zindex="10"} unicode='S' data-delay="30" data-duration="60" stroke-linecap="round" stroke-linejoin="round" d="M27 155q2 20 22 20h50q20 0 18 -20l-7 -46v-2q0 -8 5 -13t12 -5h40q8 0 15 6t8 14l25 176v5q0 15 -17 15h-50q-43 0 -65.5 20t-22.5 59q0 5 2 21l27 194q6 44 39 73t77 29h56q40 0 64.5 -24t24.5 -62q0 -11 -1 -16l-8 -54q-2 -20 -22 -20h-50q-20 0 -18 20l7 46v2 q0 8 -5 13t-12 5h-40q-8 0 -15 -6t-8 -14l-25 -176v-5q0 -15 17 -15h50q43 0 65.5 -20t22.5 -59q0 -5 -2 -21l-27 -194q-6 -44 -39 -73t-77 -29h-56q-40 0 -64.5 24t-24.5 62q0 11 1 16z" style="stroke-dasharray: 851, 891; stroke-dashoffset: 0;"></path>

        <path transform="translate(350, 0)" unicode="p" data-delay="30" data-duration="60" stroke-linecap="round" stroke-linejoin="round" d="M-24.1885 20l184.772 660q3.12402 8 10.4678 14q7.34277 6 15.3428 6h138q40 0 61.127 -24q21.126 -24 15.7852 -62q-1.54688 -11 -3.24902 -16l-42.085 -150q-17.7148 -62 -69.9082 -102.5q-52.1924 -40.5 -113.192 -40.5h-17q-5 0 -8.42188 -3t-4.9834 -7
        l-76.6553 -275q-5.81152 -20 -25.8115 -20h-50q-20 0 -14.1885 20zM176.053 413q-1.12402 -8 3.17285 -13t11.2969 -5h40q8 0 15.8438 6t9.96777 14l49.5986 175l0.28125 2q1.12402 8 -3.17285 13t-11.2969 5h-40q-8 0 -15.8438 -6q-7.84277 -6 -9.96777 -14l-49.5986 -175z" style="stroke-dasharray: 851, 891; stroke-dashoffset: 0;"></path>

        <path transform="translate(750, 0)" unicode="e" data-delay="30" data-duration="60" stroke-linecap="round" stroke-linejoin="round" d="M37 89h210q20 0 18 -20l-7 -50q-3 -20 -23 -20h-210q-20 0 -17 20l7 50q2 20 22 20zM37 185q-5 6 -4 14l67 481q2 8 8.5 14t14.5 6h210q8 0 13 -6t4 -14l-7 -50q-1 -8 -7.5 -14t-14.5 -6h-125q-8 0 -15 -6t-8 -14l-12 -85v-3q0 -7 5 -12t12 -5h95q8 0 13 -6t4 -14l-7 -50
        q-1 -8 -8 -14t-15 -6h-95q-8 0 -14.5 -6t-7.5 -14l-13 -86v-2q0 -7 5.5 -12.5t12.5 -5.5h125q8 0 13 -6t4 -14l-7 -50q-2 -8 -8.5 -14t-14.5 -6h-210q-8 0 -13 6z" style="stroke-dasharray: 851, 891; stroke-dashoffset: 0;"></path>

        <path transform="translate(1100, 0)" unicode="n" data-delay="30" data-duration="60" stroke-linecap="round" d="M160.584 680q5.81055 20 25.8105 20h53q8 0 13.3682 -4.5q5.36719 -4.5 5.38281 -11.5l-16.6387 -282q-0.84375 -6 4.15625 -6t8.125 8l76.7959 276q5.81055 20 25.8105 20h50q20 0 14.1895 -20l-184.772 -660q-5.81152 -20 -25.8115 -20h-53q-8 0 -13.3672 4.5
        q-5.36816 4.5 -5.38379 11.5l10.8281 262q0.842773 6 -4.15723 6q-4 0 -7.12402 -8l-71.9844 -256q-5.81152 -20 -25.8115 -20h-50q-20 0 -14.1885 20z" style="stroke-dasharray: 851, 891; stroke-dashoffset: 0;"></path>

        <path transform="translate(1450, 0)" unicode="c" data-delay="30" data-duration="60" stroke-linecap="round" d="M138.198 599q12.1846 44 49.2607 73t81.0762 29h56q40 0 61.127 -24q21.126 -24 15.7852 -62q-1.54688 -11 -3.24902 -16l-15.5908 -54q-4.81152 -20 -24.8115 -20h-50q-20 0 -15.1885 20l13.4658 46l0.28125 2q1.12402 8 -3.17285 13t-11.2969 5h-40q-8 0 -15.8438 -6
        q-7.84277 -6 -9.96777 -14l-135.471 -480l-0.28125 -2q-0.983398 -7 3.74316 -12.5t11.7266 -5.5h40q8 0 15.3438 6t9.46777 14l13.1846 44q4.81152 20 24.8115 20h50q20 0 15.1885 -20l-15.3086 -52q-12.1855 -44 -49.2617 -73t-81.0762 -29h-56q-40 0 -61.127 24 q-21.126 24 -15.7842 62q1.5459 11 3.24902 16z" style="stroke-dasharray: 851, 891; stroke-dashoffset: 0;"></path>

        <path transform="translate(1850, 0)" unicode="e" data-delay="30" data-duration="60" stroke-linecap="round" stroke-linejoin="round" d="M37 89h210q20 0 18 -20l-7 -50q-3 -20 -23 -20h-210q-20 0 -17 20l7 50q2 20 22 20zM37 185q-5 6 -4 14l67 481q2 8 8.5 14t14.5 6h210q8 0 13 -6t4 -14l-7 -50q-1 -8 -7.5 -14t-14.5 -6h-125q-8 0 -15 -6t-8 -14l-12 -85v-3q0 -7 5 -12t12 -5h95q8 0 13 -6t4 -14l-7 -50
        q-1 -8 -8 -14t-15 -6h-95q-8 0 -14.5 -6t-7.5 -14l-13 -86v-2q0 -7 5.5 -12.5t12.5 -5.5h125q8 0 13 -6t4 -14l-7 -50q-2 -8 -8.5 -14t-14.5 -6h-210q-8 0 -13 6z" style="stroke-dasharray: 851, 891; stroke-dashoffset: 0;"></path>

        <path transform="translate(2200, 0)" unicode="r" data-delay="30" data-duration="60" stroke-linecap="round" stroke-linejoin="round" d="M160.584 680q3.12402 8 10.4678 14q7.34277 6 15.3428 6h138q40 0 61.127 -24q21.126 -24 15.7852 -62q-1.54688 -11 -3.24902 -16l-42.085 -150q-17.293 -59 -64.7754 -98q20.6426 -31 14.458 -75q-0.984375 -7 -5.2334 -23l-64.4697 -231q-3.26562 -9 -10.6084 -15
        q-7.34375 -6 -16.3438 -6h-49q-8 0 -12.5859 6.5q-4.58691 6.5 -1.46191 14.5l73.9678 263l0.28125 2q1.125 8 -3.17285 13q-4.29688 5 -11.2969 5h-40q-8 0 -15.8438 -6q-7.84277 -6 -9.96777 -14l-74.1084 -264q-3.125 -8 -10.4678 -14q-7.34375 -6 -15.3438 -6h-50 q-8 0 -12.1562 6q-4.15723 6 -2.03223 14zM176.053 413q-1.12402 -8 3.17285 -13t11.2969 -5h40q8 0 15.8438 6t9.96777 14l49.5986 175l0.28125 2q1.12402 8 -3.17285 13t-11.2969 5h-40q-8 0 -15.8438 -6q-7.84277 -6 -9.96777 -14l-49.5986 -175z" style="stroke-dasharray: 851, 891; stroke-dashoffset: 0;"></path>

        <path transform="translate(2750, 0)" unicode="s" data-delay="30" data-duration="60" stroke-linecap="round" stroke-linejoin="round" d="M13.7871 155q4.81152 20 24.8115 20h50q20 0 15.1885 -20l-13.4658 -46l-0.28125 -2q-1.12402 -8 3.17285 -13t11.2969 -5h40q8 0 15.8438 6t9.96777 14l49.7393 176l0.703125 5q2.1084 15 -14.8916 15h-50q-43 0 -62.6885 20q-19.6895 20 -14.207 59
        q0.703125 5 4.95215 21l54.2695 194q12.1846 44 49.2607 73t81.0762 29h56q40 0 61.127 -24q21.126 -24 15.7852 -62q-1.54688 -11 -3.24902 -16l-15.5908 -54q-4.81152 -20 -24.8115 -20h-50q-20 0 -15.1885 20l13.4658 46l0.28125 2q1.12402 8 -3.17285 13t-11.2969 5h-40
        q-8 0 -15.8438 -6q-7.84277 -6 -9.96777 -14l-49.7393 -176l-0.703125 -5q-2.1084 -15 14.8916 -15h50q43 0 62.6895 -20q19.6885 -20 14.2061 -59q-0.702148 -5 -4.95117 -21l-54.2695 -194q-12.1855 -44 -49.2617 -73t-81.0762 -29h-56q-40 0 -61.126 24
        q-21.127 24 -15.7852 62q1.5459 11 3.24902 16z" style="stroke-dasharray: 851, 891; stroke-dashoffset: 0;"></path>

        <!-- Website -->
        <path transform="translate(-100, -900)" unicode="W" data-delay="30" data-duration="60" stroke-linecap="round" stroke-linejoin="round" d="M121 700h50q19 0 19 -18l-13 -315q0 -3 1.5 -5t3.5 -2q5 0 7 7l73 314q1 9 6 14t14 5h53q9 0 13 -5t3 -14l-13 -314q0 -3 1.5 -5t3.5 -2q5 0 7 7l73 315q3 18 23 18h50q10 0 13.5 -6t1.5 -16l-150 -660q-3 -18 -23 -18h-84q-19 0 -19 18l7 159q0 2 -2.5 2t-2.5 -2
        l-37 -159q-3 -18 -23 -18h-84q-19 0 -19 18l26 660q2 22 21 22z" style="stroke-dasharray: 851, 891; stroke-dashoffset: 0;"></path>

        <path transform="translate(400, -900)" unicode="e" data-delay="30" data-duration="60" stroke-linecap="round" stroke-linejoin="round" d="M37 89h210q20 0 18 -20l-7 -50q-3 -20 -23 -20h-210q-20 0 -17 20l7 50q2 20 22 20zM37 185q-5 6 -4 14l67 481q2 8 8.5 14t14.5 6h210q8 0 13 -6t4 -14l-7 -50q-1 -8 -7.5 -14t-14.5 -6h-125q-8 0 -15 -6t-8 -14l-12 -85v-3q0 -7 5 -12t12 -5h95q8 0 13 -6t4 -14l-7 -50
        q-1 -8 -8 -14t-15 -6h-95q-8 0 -14.5 -6t-7.5 -14l-13 -86v-2q0 -7 5.5 -12.5t12.5 -5.5h125q8 0 13 -6t4 -14l-7 -50q-2 -8 -8.5 -14t-14.5 -6h-210q-8 0 -13 6z" style="stroke-dasharray: 851, 891; stroke-dashoffset: 0;"></path>

        <path transform="translate(750, -900)" unicode="b" data-delay="30" data-duration="60" stroke-linecap="round" stroke-linejoin="round" d="M160.584 680q3.12402 8 10.4678 14q7.34277 6 15.3428 6h138q40 0 61.127 -24q21.126 -24 15.7852 -62q-1.54688 -11 -3.24902 -16l-42.085 -150q-17.293 -59 -64.7754 -98q20.6426 -31 14.458 -75q-0.984375 -7 -5.2334 -23l-42.084 -150q-12.1855 -44 -49.2617 -73
        t-81.0762 -29h-138q-8 0 -12.1562 6q-4.15723 6 -2.03223 14zM90.1807 108q-0.983398 -7 3.74316 -12.5t11.7266 -5.5h40q8 0 15.3438 6t9.46777 14l49.458 174l0.28125 2q1.125 8 -3.17285 13q-4.29688 5 -11.2969 5h-40q-8 0 -15.8438 -6q-7.84277 -6 -9.96777 -14
        l-49.458 -174zM176.053 413q-1.12402 -8 3.17285 -13t11.2969 -5h40q8 0 15.8438 6t9.96777 14l49.5986 175l0.28125 2q1.12402 8 -3.17285 13t-11.2969 5h-40q-8 0 -15.8438 -6q-7.84277 -6 -9.96777 -14l-49.5986 -175z" style="stroke-dasharray: 851, 891; stroke-dashoffset: 0;"></path>

        <path transform="translate(1100, -900)" unicode="s" data-delay="30" data-duration="60" stroke-linecap="round" stroke-linejoin="round" d="M13.7871 155q4.81152 20 24.8115 20h50q20 0 15.1885 -20l-13.4658 -46l-0.28125 -2q-1.12402 -8 3.17285 -13t11.2969 -5h40q8 0 15.8438 6t9.96777 14l49.7393 176l0.703125 5q2.1084 15 -14.8916 15h-50q-43 0 -62.6885 20q-19.6895 20 -14.207 59
        q0.703125 5 4.95215 21l54.2695 194q12.1846 44 49.2607 73t81.0762 29h56q40 0 61.127 -24q21.126 -24 15.7852 -62q-1.54688 -11 -3.24902 -16l-15.5908 -54q-4.81152 -20 -24.8115 -20h-50q-20 0 -15.1885 20l13.4658 46l0.28125 2q1.12402 8 -3.17285 13t-11.2969 5h-40
        q-8 0 -15.8438 -6q-7.84277 -6 -9.96777 -14l-49.7393 -176l-0.703125 -5q-2.1084 -15 14.8916 -15h50q43 0 62.6895 -20q19.6885 -20 14.2061 -59q-0.702148 -5 -4.95117 -21l-54.2695 -194q-12.1855 -44 -49.2617 -73t-81.0762 -29h-56q-40 0 -61.126 24
        q-21.127 24 -15.7852 62q1.5459 11 3.24902 16z" style="stroke-dasharray: 851, 891; stroke-dashoffset: 0;"></path>

        <path transform="translate(1450, -900)" unicode="i" data-delay="30" data-duration="60" stroke-linecap="round" stroke-linejoin="round" d="M191.052 694q7.34277 6 15.3428 6h50q8 0 12.1572 -6q4.15625 -6 2.03223 -14l-184.772 -660q-3.125 -8 -10.4678 -14q-7.34375 -6 -15.3438 -6h-50q-8 0 -12.1562 6q-4.15723 6 -2.03223 14l184.772 660q3.12402 8 10.4678 14z" style="stroke-dasharray: 851, 891; stroke-dashoffset: 0;"></path>

        <path transform="translate(1650, -900)" unicode="t" data-delay="30" data-duration="60" stroke-linecap="round" stroke-linejoin="round" d="M149.088 616q-4.65723 6 -2.53223 14l14.0283 50q3.12402 8 10.4678 14q7.34277 6 15.3428 6h220q8 0 12.1572 -6q4.15625 -6 2.03223 -14l-14.0283 -50q-2.125 -8 -9.46777 -14q-7.34375 -6 -15.3438 -6h-45q-8 0 -15.8438 -6q-7.84277 -6 -9.96777 -14l-160.121 -570
        q-3.125 -8 -10.4678 -14q-7.34375 -6 -15.3438 -6h-50q-8 0 -12.1562 6q-4.15723 6 -2.03223 14l160.121 570l0.28125 2q1.12402 8 -3.17285 13t-11.2969 5h-45q-8 0 -12.6562 6z" style="stroke-dasharray: 851, 891; stroke-dashoffset: 0;"></path>

        <path transform="translate(2050, -900)" unicode="e" data-delay="30" data-duration="60" stroke-linecap="round" stroke-linejoin="round" d="M37 89h210q20 0 18 -20l-7 -50q-3 -20 -23 -20h-210q-20 0 -17 20l7 50q2 20 22 20zM37 185q-5 6 -4 14l67 481q2 8 8.5 14t14.5 6h210q8 0 13 -6t4 -14l-7 -50q-1 -8 -7.5 -14t-14.5 -6h-125q-8 0 -15 -6t-8 -14l-12 -85v-3q0 -7 5 -12t12 -5h95q8 0 13 -6t4 -14l-7 -50
        q-1 -8 -8 -14t-15 -6h-95q-8 0 -14.5 -6t-7.5 -14l-13 -86v-2q0 -7 5.5 -12.5t12.5 -5.5h125q8 0 13 -6t4 -14l-7 -50q-2 -8 -8.5 -14t-14.5 -6h-210q-8 0 -13 6z" style="stroke-dasharray: 851, 891; stroke-dashoffset: 0;"></path>

      </g>
    </g>
	</svg>
